PathFileType	4	(X/Y/Z)	C:/Users/beibeiliu/ov580/test_trc/User3\sequence.36_training_dense_right.trc
DataRate	CameraRate	NumFrames	NumMarkers	Units	OrigDataRate	OrigDataStartFrame	OrigNumFrames
120	120	8	19	mm	120	95	252
Frame#	Time	ThumbCMC			ThumbMCP			ThumbIP			ThumbTip			IndexMCP			IndexPIP			IndexTip			MiddleMCP			MiddlePIP			MiddleTip			RingMCP			RingPIP			RingTip			PinkyMCP			PinkyPIP			PinkyTip			BackHand1			BackHand2			BackHand3	
		X0	Y0	Z0	X1	Y1	Z1	X2	Y2	Z2	X3	Y3	Z3	X4	Y4	Z4	X5	Y5	Z5	X6	Y6	Z6	X7	Y7	Z7	X8	Y8	Z8	X9	Y9	Z9	X10	Y10	Z10	X11	Y11	Z11	X12	Y12	Z12	X13	Y13	Z13	X14	Y14	Z14	X15	Y15	Z15	X16	Y16	Z16	X17	Y17	Z17	X18	Y18	Z18	
94	0.783333	91.1564	-40.1281	48.656	71.1501	-49.9046	26.7014	54.9041	-56.8148	-1.69938	48.2659	-66.9837	-22.0893	107.829	-25.3897	-28.805	100.119	-25.7345	-57.2042	92.7389	-32.2518	-79.7332	133.556	-28.5123	-32.4847	134.285	-35.6804	-63.9491	132.229	-51.6985	-92.6956	148.738	-49.5667	-27.9141	147.88	-68.9028	-46.9292	139.722	-96.8552	-55.4437	161.274	-61.4837	-9.36675	158.861	-81.7161	-27.474	143.852	-108.371	-29.5497	153.18	-29.8076	24.4982	153.037	-28.3891	53.3192	118.718	-16.4745	40.4401	
95	0.791667	84.2936	-49.2609	40.9969	66.1346	-60.0554	20.5517	51.5695	-68.9688	-8.24429	47.6528	-78.2382	-24.6888	102.045	-33.1051	-30.6163	97.867	-33.1021	-60.3741	92.0758	-37.9601	-83.8142	134.368	-36.8292	-34.0832	133.589	-40.0985	-65.9232	136.271	-53.3001	-94.8573	145.677	-54.7236	-29.5444	146.831	-73.4719	-51.512	142.06	-101.927	-61.9184	161.474	-67.3061	-14.8215	161.128	-90.0245	-31.1132	150.372	-112.613	-33.1676	147.101	-33.06	21.2569	147.927	-32.7219	50.7015	117.197	-26.4923	31.538	
96	0.8	79.4994	-59.6324	34.2474	68.0113	-73.1941	10.7118	52.15	-82.5142	-10.0522	44.0855	-92.9723	-30.1684	97.8271	-44.2314	-37.3984	91.9716	-44.4078	-62.8965	94.418	-48.9616	-88.6846	128.614	-46.2786	-44.8627	135.016	-51.3491	-71.0772	134.114	-62.0603	-98.6501	146.549	-66.1	-32.8362	147.168	-87.9621	-57.474	139.333	-114.056	-67.1447	164.485	-76.9875	-16.2796	158.353	-98.2001	-34.8397	153.599	-121.951	-37.4386	141.485	-42.5052	17.6923	140.165	-40.0399	44.7851	110.099	-35.7282	29.7398	
97	0.808333	76.399	-73.2325	29.4633	66.8962	-86.683	7.69466	48.2849	-97.995	-13.2916	46.1436	-110.173	-34.8772	98.633	-58.1741	-42.3704	92.6487	-61.165	-70.0465	91.5127	-68.9191	-95.3505	125.633	-58.7998	-49.6765	128.671	-65.573	-75.6632	132.926	-82.7789	-105.079	144.153	-79.6188	-40.5335	148.376	-99.2533	-57.809	143.372	-129.564	-64.1689	158.824	-87.5438	-21.0875	160.685	-113.683	-35.4356	149.42	-138.612	-34.4051	140.835	-53.8951	10.482	138.011	-48.7724	39.4341	105.587	-47.3619	21.8216	
98	0.816667	74.7102	-84.6075	29.9836	63.0014	-101.182	8.5182	53.6805	-114.245	-16.2203	48.4072	-128.638	-38.3258	96.8918	-73.3856	-46.1436	93.1256	-79.6014	-74.7948	86.5119	-95.9189	-99.0999	124.871	-73.4604	-52.0367	127.281	-85.2235	-81.9635	125.982	-107.532	-102.753	141.47	-91.3322	-39.9407	143.729	-114.076	-58.8731	137.621	-144.266	-57.8032	160.537	-99.9456	-21.2701	153.471	-125.308	-38.0943	141.587	-147.519	-28.4117	134.909	-64.4066	8.3382	136.383	-59.2543	38.678	101.594	-59.1453	15.7493	
99	0.825	73.5631	-91.8578	25.7765	64.005	-110.969	5.14142	53.5472	-126.179	-21.1735	52.7664	-142.012	-41.2769	91.3353	-85.4053	-48.5918	87.4578	-94.3494	-76.2368	86.0919	-120.864	-95.3699	117.649	-86.3398	-55.7406	120.809	-102.414	-81.2467	116.543	-135.296	-96.0742	136.518	-105.336	-44.2458	138.58	-133.251	-57.0907	129.388	-160.026	-44.2045	155.953	-113.009	-27.3133	150.716	-140.23	-34.6055	131.272	-156.964	-20.5578	135.237	-75.7724	2.12186	137.365	-67.7765	33.7336	101.217	-68.457	14.4279	
100	0.833333	74.4177	-95.307	25.8732	59.2333	-112.588	2.95206	51.3163	-128.057	-20.601	60.3988	-141.776	-42.9085	93.9529	-86.2195	-49.2612	86.8386	-97.5315	-80.1821	83.651	-123.859	-89.4025	117.147	-91.2325	-54.9759	116.71	-110.549	-82.4709	107.292	-144.466	-84.7898	132.491	-110.19	-44.2256	126.879	-139.949	-56.9676	113.018	-161.51	-32.2566	147.608	-119.155	-27.675	138.067	-143.953	-36.8779	122.367	-155.395	-11.8484	131.777	-81.3296	3.11764	137.659	-76.6054	32.4235	102.919	-70.6424	14.3302	
101	0.841667	70.7328	-91.2768	25.0133	60.9197	-104.422	-0.298771	49.8655	-113.985	-29.0308	56.9814	-126.747	-47.2407	89.1711	-70.1129	-46.4339	83.5397	-79.9057	-75.4623	76.9182	-113.115	-79.939	113.573	-78.4461	-54.0861	107.179	-95.5246	-79.1011	93.9749	-134.06	-70.4686	123.482	-100.932	-45.8533	116.311	-129.96	-55.8096	102.21	-145.396	-29.2359	138.752	-113.051	-28.9638	125.636	-137.716	-36.3491	112.593	-143.418	-9.65129	132.735	-79.9522	9.51035	133.411	-80.297	38.2736	104.351	-68.9751	20.2232	
